<svg fill="none" height="48" viewBox="0 0 122 48" width="122" xmlns="http://www.w3.org/2000/svg">
<path d="M105.015 6.44855C102.807 6.44855 102.16 5.19734 102.16 3.22428C102.16 1.25121 102.807 0 105.015 0H118.498C120.705 0 121.353 1.27527 121.353 3.22428C121.353 5.19734 120.705 6.44855 118.498 6.44855H115.259V24.543C115.259 26.877 113.844 27.7191 111.756 27.7191C109.645 27.7191 108.254 26.9251 108.254 24.543V6.44855H105.015Z" fill="white"></path>
<path d="M71.6661 6.73744C71.6661 4.62001 72.8897 3.92222 74.713 3.92222C76.5364 3.92222 77.76 4.64407 77.76 6.71338V17.7577C77.76 20.8857 78.8876 22.546 81.0708 22.546C83.278 22.546 84.3817 20.8857 84.3817 17.7336V5.26968C84.3817 3.15224 85.6052 2.47852 87.4526 2.47852C89.276 2.47852 90.4995 3.20037 90.4995 5.26968V17.8058C90.4995 23.8935 87.8365 27.8877 81.0708 27.8877C74.3292 27.8877 71.6421 23.9175 71.6421 17.8299L71.6661 6.73744Z" fill="white"></path>
<path d="M95.8977 27.5508C93.7145 27.5508 92.8748 26.4199 92.8748 24.4709V4.13879C92.8748 1.87699 94.1703 1.1792 96.1616 1.1792C98.1529 1.1792 99.4485 1.87699 99.4485 4.13879V21.4873H103.719C105.758 21.4873 106.382 22.6904 106.382 24.495C106.382 26.3477 105.758 27.5027 103.719 27.5027L95.8977 27.5508Z" fill="white"></path>
<path d="M54.2244 25.0243C54.2244 26.9974 55.4479 27.6952 57.1513 27.6952C58.9987 27.6952 60.0543 26.9974 60.0543 25.0243V21.6076H62.0696C66.9879 21.6076 69.9149 18.7442 69.9149 13.98C69.9149 9.23986 67.3958 6.28027 60.99 6.28027H57.1274C55.0641 6.28027 54.2244 7.29086 54.2244 9.09549V25.0243ZM60.0543 16.9877V10.9001H60.7981C63.5811 10.9001 64.0849 12.3438 64.0849 13.956C64.0849 15.7365 63.5571 16.9877 60.7981 16.9877H60.0543Z" fill="white"></path>
<path d="M26.514 14.9906C25.0745 14.9906 24.6187 14.0762 24.6187 12.8009C24.6187 11.5016 25.0505 10.6113 26.514 10.6113L35.103 10.6354C36.5665 10.6354 36.9984 11.5738 36.9984 12.825C36.9984 14.0762 36.5665 15.0146 35.103 15.0146H33.2796V25.5777C33.2796 27.2139 32.272 27.7192 30.8325 27.7192C29.393 27.7192 28.3853 27.2139 28.3853 25.5777V15.0146L26.514 14.9906Z" fill="white"></path>
<path d="M41.2448 23.6769H46.8589L47.3387 25.4575C47.7946 27.3102 48.6583 27.7193 50.3377 27.7193C52.1131 27.7193 53.3846 26.7087 52.8808 24.8078C52.425 23.1235 48.6343 11.5017 48.6343 11.5017C47.5786 8.51799 46.667 8.0127 44.2678 8.0127C41.8446 8.0127 40.9569 8.59018 39.8773 11.5257C39.8773 11.5257 35.7987 23.0994 35.2949 24.8559C34.7431 26.8049 35.9187 27.7433 37.6941 27.7433C39.4455 27.7433 39.9973 27.2621 40.6451 25.4334L41.2448 23.6769ZM42.2045 19.0811L44.1238 11.6941L45.8272 19.0811H42.2045Z" fill="white"></path>
<path d="M16.7252 24.3987H21.4276L21.9074 25.8906C22.2673 27.2861 22.7951 27.6952 24.2826 27.6952C25.6981 27.6952 26.7537 26.9012 26.3699 25.3612C26.01 24.0378 22.7711 14.5816 22.7711 14.5816C21.9794 12.2957 21.1157 11.8145 19.2203 11.8145C17.301 11.8145 16.5093 12.2957 15.6696 14.6056C15.6696 14.6056 12.4067 24.0137 11.9989 25.4093C11.567 26.9493 12.5507 27.7193 13.9662 27.7193C15.3337 27.7193 15.8375 27.2621 16.3174 25.8665L16.7252 24.3987ZM17.7569 20.6932L19.1244 14.7019L20.6598 20.6932H17.7569Z" fill="white"></path>
<path d="M6.18985 23.7487C6.9096 23.7487 7.41343 23.5081 7.98923 23.075C8.94889 22.3531 9.71663 22.4253 10.4124 23.3637C11.0842 24.254 10.9162 25.1684 10.1005 25.9865C9.23679 26.8286 7.70133 27.5505 5.87796 27.5505C2.37518 27.5505 0 24.6631 0 20.4763C0 16.1934 2.63908 13.4263 6.16586 13.4263C8.0612 13.4263 9.33276 14.0759 10.1965 14.87C10.9882 15.6159 11.1801 16.458 10.5803 17.3724C10.0525 18.2145 9.04486 18.5995 8.25314 17.9499C7.82129 17.5889 7.26948 17.0836 6.30981 17.0836C4.91829 17.0836 3.95863 18.407 3.95863 20.4763C3.98262 22.4494 4.84632 23.7487 6.18985 23.7487Z" fill="white"></path>
<path d="M68.787 41.0251H70.2026C72.2659 41.0251 73.2255 39.6055 73.2255 37.5843C73.2255 35.6112 72.2419 34.2878 70.3225 34.2878H68.787V41.0251ZM66.1479 33.1569C66.1479 32.2907 66.7957 31.8335 67.4675 31.8335H70.6344C74.0892 31.8335 76.0566 34.5765 76.0566 37.5843C76.0566 41.4101 73.5134 43.4794 70.6344 43.4794H67.4675C66.7717 43.4794 66.1479 42.9982 66.1479 42.156V33.1569Z" fill="white"></path>
<path d="M77.4241 35.9962C77.4241 35.2744 77.9519 34.6728 78.6957 34.6728C79.4394 34.6728 79.9672 35.2503 79.9672 35.9962V42.2523C79.9672 42.9982 79.4394 43.5757 78.6957 43.5757C77.9519 43.5757 77.4241 42.9741 77.4241 42.2523V35.9962ZM78.6957 30.8711C79.5354 30.8711 80.2072 31.5448 80.2072 32.387C80.2072 33.2532 79.5114 33.9029 78.6957 33.9029C77.856 33.9029 77.1842 33.2291 77.1842 32.387C77.1602 31.5689 77.856 30.8711 78.6957 30.8711Z" fill="white"></path>
<path d="M85.6774 36.9831C84.5498 36.9831 83.926 37.9696 83.926 39.1487C83.926 40.3999 84.5498 41.3383 85.6774 41.3383C86.805 41.3383 87.4288 40.3999 87.4288 39.1487C87.4288 37.9696 86.805 36.9831 85.6774 36.9831ZM89.9719 42.6376C89.9719 45.91 87.8366 47.1372 85.3415 47.1372C84.022 47.1372 81.5268 46.6319 81.5268 45.2363C81.5268 44.6588 82.0786 44.1294 82.5825 44.1294C83.3262 44.1294 83.806 44.8754 85.2935 44.8754C86.877 44.8754 87.4048 44.0332 87.4048 42.6135H87.3808C86.829 43.3835 85.9173 43.6001 85.0536 43.6001C82.5825 43.6001 81.3589 41.4586 81.3589 39.1487C81.3589 36.5741 83.0863 34.5288 85.2935 34.5288C86.2532 34.5288 86.9009 34.8175 87.4767 35.5153C87.6447 35.1063 88.0525 34.6972 88.6763 34.6972C89.4201 34.6972 89.9479 35.2747 89.9479 36.0206V42.6376H89.9719Z" fill="white"></path>
<path d="M91.7712 35.9962C91.7712 35.2744 92.299 34.6728 93.0427 34.6728C93.7864 34.6728 94.3143 35.2503 94.3143 35.9962V42.2523C94.3143 42.9982 93.7864 43.5757 93.0427 43.5757C92.299 43.5757 91.7712 42.9741 91.7712 42.2523V35.9962ZM93.0427 30.8711C93.8824 30.8711 94.5542 31.5448 94.5542 32.387C94.5542 33.2532 93.8584 33.9029 93.0427 33.9029C92.203 33.9029 91.5312 33.2291 91.5312 32.387C91.5312 31.5689 92.203 30.8711 93.0427 30.8711Z" fill="white"></path>
<path d="M97.3851 37.1514H97.0972C96.2815 37.1514 95.7537 36.7905 95.7537 35.9724C95.7537 35.1543 96.2815 34.7934 97.0972 34.7934H97.3851V33.109C97.3851 32.3631 97.9129 31.7856 98.6567 31.7856C99.4004 31.7856 99.9282 32.3631 99.9282 33.109V34.7934H100.624C101.44 34.7934 101.968 35.1543 101.968 35.9724C101.968 36.7905 101.44 37.1514 100.624 37.1514H99.9282V42.2765C99.9282 43.0224 99.4004 43.5999 98.6567 43.5999C97.8889 43.5999 97.3851 43.0224 97.3851 42.2765V37.1514Z" fill="white"></path>
<path d="M105.087 39.1483C105.087 40.3273 105.71 41.3139 106.838 41.3139C107.966 41.3139 108.589 40.3273 108.589 39.1483C108.589 37.9693 107.966 36.9828 106.838 36.9828C105.71 36.9828 105.087 37.9693 105.087 39.1483ZM111.133 42.2763C111.133 43.0222 110.605 43.5997 109.861 43.5997C109.237 43.5997 108.853 43.1666 108.661 42.7816C108.086 43.4794 107.438 43.7682 106.478 43.7682C104.247 43.7682 102.543 41.7229 102.543 39.1242C102.543 36.5496 104.271 34.5044 106.478 34.5044C107.438 34.5044 108.086 34.7931 108.661 35.4909C108.829 35.0819 109.237 34.6728 109.861 34.6728C110.605 34.6728 111.133 35.2503 111.133 35.9962V42.2763Z" fill="white"></path>
<path d="M112.692 32.1945C112.692 31.4486 113.22 30.8711 113.963 30.8711C114.707 30.8711 115.235 31.4486 115.235 32.1945V42.2523C115.235 42.9982 114.707 43.5757 113.963 43.5757C113.22 43.5757 112.692 42.9982 112.692 42.2523V32.1945Z" fill="white"></path>
</svg>